<?xml version="1.0" encoding="UTF-8"?> <svg xmlns="http://www.w3.org/2000/svg" width="65" height="65" viewBox="0 0 65 65" fill="none"><path d="M62.573 6.22983C62.0998 4.70722 60.9073 3.51519 59.3845 3.04259L58.2188 2.68084C54.0047 1.37298 49.4128 2.50758 46.2928 5.62765L44.5394 7.38105C42.1277 5.56997 38.6891 5.76159 36.4947 7.95592L34.3071 10.1436C33.7914 10.6593 33.7914 11.4954 34.3071 12.011L37.1082 14.8122L36.7916 15.1288C35.5884 16.332 35.5884 18.2829 36.7916 19.4862L37.6204 20.3149L35.1828 21.7736C34.8336 21.9826 34.6003 22.3408 34.5504 22.7446C34.5004 23.1484 34.6394 23.5527 34.9272 23.8404L41.7745 30.6878C42.0641 30.9773 42.4715 31.1162 42.8776 31.0637C43.2837 31.0111 43.6424 30.7732 43.8488 30.4195L45.2771 27.9716L46.1347 28.8292C47.3379 30.0324 49.2888 30.0324 50.492 28.8292L50.8033 28.5179L53.602 31.3166C54.1177 31.8323 54.9538 31.8323 55.4695 31.3166L57.6571 29.1289C59.8506 26.9355 60.0429 23.4986 58.2341 21.0871L59.9911 19.3301C63.1124 16.2088 64.2466 11.6147 62.9365 7.39945L62.573 6.22983Z" fill="#207DE9"></path><path d="M30.7747 25.2977C31.5208 24.5517 32.7304 24.5517 33.4764 25.2977C34.2225 26.0437 34.2225 27.2533 33.4764 27.9994L29.6649 31.8112C28.9188 32.5573 27.7092 32.5573 26.9632 31.8113C26.2172 31.0652 26.2172 29.8556 26.9632 29.1096L30.7747 25.2977Z" fill="#207DE9"></path><path d="M34.1985 28.7214C34.9445 27.9753 36.1541 27.9753 36.9001 28.7214C37.6462 29.4674 37.6462 30.677 36.9001 31.423L30.5987 37.7248C29.8526 38.4709 28.643 38.4709 27.897 37.7248C27.151 36.9788 27.1509 35.7692 27.897 35.0232L34.1985 28.7214Z" fill="#207DE9"></path><path d="M37.6186 32.1487C38.3646 31.4026 39.5742 31.4027 40.3203 32.1487C41.0663 32.8948 41.0663 34.1043 40.3202 34.8504L36.5123 38.6586C35.7663 39.4046 34.5567 39.4046 33.8106 38.6586C33.0646 37.9125 33.0646 36.7029 33.8106 35.9569L37.6186 32.1487Z" fill="#207DE9"></path><circle cx="27.2218" cy="38.2505" r="25.5581" fill="#DBF3F1"></circle><path fill-rule="evenodd" clip-rule="evenodd" d="M50.902 28.6169C48.3115 22.2557 43.2322 17.1728 36.8733 14.5776L37.1082 14.8125L36.7916 15.1291C35.5884 16.3323 35.5884 18.2832 36.7916 19.4865L37.6203 20.3152L35.1828 21.774C34.8336 21.9829 34.6003 22.3411 34.5504 22.745C34.5004 23.1488 34.6394 23.5531 34.9271 23.8408L41.7745 30.6881C42.064 30.9777 42.4715 31.1165 42.8776 31.064C43.2837 31.0115 43.6424 30.7735 43.8488 30.4199L45.277 27.9719L46.1346 28.8295C47.3379 30.0327 49.2888 30.0327 50.492 28.8295L50.8033 28.5182L50.902 28.6169ZM30.7747 25.2983C31.5208 24.5522 32.7304 24.5522 33.4764 25.2983C34.2224 26.0443 34.2224 27.2539 33.4764 27.9999L27.2226 34.2535C26.4765 34.9996 25.2669 34.9996 24.5209 34.2536C23.7749 33.5075 23.7749 32.298 24.5209 31.5519L30.7747 25.2983ZM36.9001 28.7219C36.1541 27.9759 34.9445 27.9759 34.1985 28.7219L25.4547 37.4655C24.7086 38.2115 24.7086 39.4211 25.4547 40.1672C26.2007 40.9132 27.4103 40.9132 28.1564 40.1671L36.9001 31.4236C37.6462 30.6775 37.6462 29.4679 36.9001 28.7219ZM40.3202 32.1493C39.5742 31.4032 38.3646 31.4032 37.6186 32.1492L31.3683 38.3992C30.6223 39.1453 30.6223 40.3548 31.3683 41.1009C32.1144 41.8469 33.324 41.8469 34.07 41.1009L40.3202 34.8509C41.0663 34.1049 41.0663 32.8953 40.3202 32.1493Z" fill="#6ADFD7"></path><path d="M53.9185 11.7028C52.1995 9.98384 49.4126 9.98384 47.6936 11.7028C45.9747 13.4217 45.9747 16.2087 47.6936 17.9276C49.4126 19.6466 52.1995 19.6466 53.9185 17.9276C55.6374 16.2087 55.6374 13.4217 53.9185 11.7028Z" fill="#DBF3F1"></path></svg> 